<?xml version="1.0" encoding="utf-8"?>
<!-- Generator: Adobe Illustrator 16.0.0, SVG Export Plug-In . SVG Version: 6.00 Build 0)  -->
<!DOCTYPE svg PUBLIC "-//W3C//DTD SVG 1.1//EN" "http://www.w3.org/Graphics/SVG/1.1/DTD/svg11.dtd">
<svg version="1.1" id="Layer_1" xmlns="http://www.w3.org/2000/svg" xmlns:xlink="http://www.w3.org/1999/xlink" x="0px" y="0px"
	 width="280.311px" height="198.201px" viewBox="0 0 280.311 198.201" enable-background="new 0 0 280.311 198.201"
	 xml:space="preserve">
<g>
	<path fill="#FFFFFF" d="M111.313,127.793c0-1.063-0.872-1.928-1.946-1.928h-5.029c-2.728,0-4.633-1.854-4.633-4.51V61.487
		c0-0.832-0.56-1.586-1.36-1.834c-0.853-0.265-1.706,0.059-2.182,0.744c-2.185,3.161-6.444,8.202-11.257,12.006l-0.425,0.33
		c-4.379,3.356-8.411,5.058-11.982,5.058c-1.07,0-1.943,0.864-1.943,1.927s0.873,1.928,1.943,1.928c2.11,0,4.347-0.466,6.647-1.385
		c0.386-0.155,0.989-0.339,1.653-0.339c1.52,0,3.144,0.985,3.144,3.753v37.72c0,4.034-3.007,4.472-4.301,4.472h-6.016
		c-1.07,0-1.943,0.864-1.943,1.928c0,1.062,0.873,1.928,1.943,1.928h35.741C110.441,129.721,111.313,128.855,111.313,127.793z
		 M95.818,121.477c0,2.873-1.971,4.289-3.801,4.386c-0.005,0-0.008,0-0.013,0c-2.177,0-4.182-1.413-4.182-4.109V78.171
		c0-3.032,1.581-4.503,2.34-5.209c0.849-0.835,1.836-1.681,3.006-1.681c1.208,0,2.649,0.738,2.649,4.25V121.477z"/>
	<path fill="#FFFFFF" d="M144.141,60.389c-0.192-0.051-0.388-0.086-0.583-0.122l-0.526-0.1c-1.94-0.418-3.446-0.605-4.872-0.605
		c-15.678,0-28.434,15.733-28.434,35.075c0,19.344,12.756,35.084,28.434,35.084c1.357,0,2.786-0.171,4.6-0.549l0.148-0.1l0.65-0.062
		c0.198-0.034,0.403-0.068,0.599-0.118c13.118-3.716,22.437-18.073,22.437-34.256c0-16.177-9.318-30.532-22.158-34.131l0.121-1.647
		L144.141,60.389z M126.346,118.244c-0.423,0.63-1.111,0.992-1.886,0.992c-0.866,0-1.76-0.465-2.515-1.305
		c-5.296-5.916-8.333-14.407-8.333-23.295c0-9.725,3.525-18.718,9.672-24.671c1.257-1.221,3.049-1.146,3.793,0.025
		c0.434,0.68,0.446,1.577,0.034,2.46c-2.757,5.924-4.215,13.599-4.215,22.195c0,7.834,1.229,14.983,3.552,20.671
		C127.062,116.815,126.647,117.795,126.346,118.244z M162.71,94.636c0,14.525-8.095,27.336-19.245,30.466l-0.241,0.068l-0.248-0.01
		c-9.689-0.356-16.199-12.619-16.199-30.516c0-17.905,6.509-30.172,16.199-30.525l0.248-0.009l0.241,0.066
		C154.616,67.308,162.71,80.117,162.71,94.636z"/>
	<path fill="#FFFFFF" d="M207.138,60.387c-0.192-0.051-0.385-0.085-0.576-0.121l-0.53-0.1c-1.937-0.418-3.44-0.605-4.868-0.605
		c-15.679,0-28.434,15.733-28.434,35.075c0,19.344,12.755,35.084,28.434,35.084c1.363,0,2.789-0.171,4.599-0.549l0.148-0.1
		l0.645-0.062c0.202-0.034,0.403-0.068,0.599-0.118c13.118-3.716,22.434-18.073,22.434-34.256c0-16.179-9.315-30.532-22.148-34.131
		l0.117-1.647L207.138,60.387z M189.126,117.885c-0.434,0.642-1.135,1.008-1.922,1.008c-0.933,0-1.89-0.518-2.689-1.46
		c-5.095-5.956-7.902-14.054-7.902-22.796c0-9.376,3.322-18.169,9.12-24.125c1.392-1.432,3.388-1.463,4.205-0.193
		c0.251,0.392,0.596,1.226,0.053,2.409c-2.677,5.887-4.094,13.467-4.094,21.918c0,7.611,1.159,14.587,3.359,20.178
		C189.879,116.41,189.443,117.423,189.126,117.885z M225.705,94.636c0,14.525-8.092,27.339-19.242,30.466l-0.235,0.068l-0.248-0.01
		c-9.688-0.356-16.198-12.619-16.198-30.516c0-17.905,6.511-30.172,16.198-30.525l0.248-0.009l0.235,0.066
		C217.613,67.308,225.705,80.117,225.705,94.636z"/>
	<path fill="#FFFFFF" d="M37.429,102.963c0,0.518,0.201,1.001,0.565,1.367l19.211,19.133c0.734,0.734,2.025,0.729,2.75,0.004
		c0.367-0.366,0.567-0.85,0.567-1.364s-0.2-0.998-0.564-1.36l-14.72-14.652c-0.95-0.948-1.43-1.992-1.429-3.102
		c0-1.125,0.515-2.229,1.484-3.192l14.665-14.598c0.363-0.361,0.564-0.845,0.564-1.359c0-0.516-0.201-1.001-0.565-1.365
		c-0.364-0.361-0.854-0.561-1.376-0.561s-1.012,0.2-1.377,0.564l-19.209,19.128C37.63,101.969,37.429,102.449,37.429,102.963z"/>
</g>
</svg>
